<svg width="57" height="57" viewBox="0 0 57 57" fill="none" xmlns="http://www.w3.org/2000/svg">
<path d="M28.5212 0.000213435C28.6341 0.000452584 28.747 0.000691734 28.8633 0.000938131C30.4838 0.00644992 32.0736 0.0342911 33.6654 0.36779C33.7735 0.389837 33.8816 0.411883 33.993 0.434598C38.3255 1.34121 42.3674 3.07514 45.8672 5.80516C45.9653 5.87982 46.0634 5.95449 46.1644 6.03142C47.8938 7.37451 49.5147 8.96123 50.8589 10.6877C50.9861 10.8435 50.9861 10.8435 51.1158 11.0024C54.957 15.801 57.0084 21.9596 56.9948 28.0792C56.9945 28.4054 56.9971 28.7315 56.9999 29.0576C57.0048 30.5416 56.8711 31.9727 56.627 33.4358C56.5957 33.6251 56.5957 33.6251 56.5638 33.8182C55.7845 38.1583 53.9006 42.2843 51.1916 45.7531C51.1074 45.861 51.0232 45.9689 50.9364 46.08C49.5682 47.7866 48.0373 49.4015 46.3109 50.7466C46.2071 50.8315 46.1033 50.9163 45.9963 51.0037C42.4519 53.843 38.1074 55.675 33.6654 56.5169C33.5756 56.5351 33.4858 56.5532 33.3933 56.572C30.0609 57.2235 26.2182 57.102 22.9055 56.4059C22.7366 56.3712 22.7366 56.3712 22.5643 56.3357C18.4566 55.4626 14.5606 53.6792 11.2583 51.0795C11.1508 50.9954 11.0433 50.9113 10.9325 50.8247C9.22574 49.4568 7.61131 47.924 6.26666 46.197C6.13947 46.0412 6.13947 46.0412 6.00971 45.8823C3.17146 42.3366 1.3401 37.9905 0.498511 33.5468C0.480351 33.457 0.462192 33.3672 0.443482 33.2747C-0.163239 30.1691 -0.149826 26.4345 0.498511 23.3379C0.52055 23.2297 0.542588 23.1215 0.565294 23.0101C1.47157 18.676 3.20486 14.6327 5.93388 11.1316C6.00852 11.0334 6.08316 10.9353 6.16006 10.8342C7.50266 9.10421 9.0888 7.48274 10.8146 6.13806C10.9184 6.05323 11.0222 5.96841 11.1292 5.88101C16.044 1.94391 22.2719 -0.0235915 28.5212 0.000213435ZM25.9005 14.9044C24.313 16.8447 24.185 18.9269 24.2159 21.3266C24.2175 21.5548 24.219 21.7829 24.2204 22.0111C24.2237 22.5644 24.2303 23.1175 24.2367 23.6708C23.1385 23.6708 22.0403 23.6708 20.9089 23.6708C20.9089 25.575 20.9089 27.4792 20.9089 29.441C22.007 29.441 23.1052 29.441 24.2367 29.441C24.2367 34.8607 24.2367 40.2803 24.2367 45.8641C26.4696 45.8641 28.7025 45.8641 31.0031 45.8641C31.0031 40.4445 31.0031 35.0249 31.0031 29.441C32.504 29.441 34.0048 29.441 35.5511 29.441C35.7091 28.4135 35.8472 27.4007 35.9532 26.3687C35.9681 26.231 35.9829 26.0933 35.9983 25.9515C36.0123 25.8163 36.0263 25.6812 36.0407 25.542C36.0533 25.4222 36.0658 25.3024 36.0787 25.1789C36.1127 24.6773 36.1057 24.1736 36.1057 23.6708C34.4219 23.6708 32.738 23.6708 31.0031 23.6708C31.0146 22.9865 31.026 22.3021 31.0378 21.5971C31.0406 21.382 31.0433 21.1669 31.0462 20.9453C31.0497 20.7737 31.0534 20.6022 31.0573 20.4306C31.0583 20.2983 31.0583 20.2983 31.0594 20.1633C31.0724 19.6585 31.1044 19.2984 31.4468 18.8992C31.9145 18.6194 32.4227 18.6391 32.9534 18.6313C33.0336 18.6294 33.1137 18.6274 33.1962 18.6254C33.4935 18.6184 33.7909 18.6133 34.0883 18.6079C34.754 18.5942 35.4198 18.5805 36.1057 18.5663C36.1057 16.7354 36.1057 14.9044 36.1057 13.018C35.2535 13.0077 34.4015 12.9989 33.5492 12.9936C33.2601 12.9914 32.9709 12.9884 32.6818 12.9845C30.257 12.9529 27.6747 12.9683 25.9005 14.9044Z" fill="#322E2B"/>
</svg>
