<svg width="57" height="57" viewBox="0 0 57 57" fill="none" xmlns="http://www.w3.org/2000/svg">
<path d="M33.6255 0.492784C33.741 0.515359 33.8566 0.537934 33.9757 0.561193C39.6548 1.69532 44.6128 4.45673 48.7626 8.44662C48.853 8.53216 48.9433 8.6177 49.0364 8.70583C49.6453 9.2944 50.1723 9.9424 50.6974 10.6055C50.833 10.774 50.833 10.774 50.9713 10.946C53.7678 14.4845 55.6283 18.6176 56.5303 23.0263C56.5475 23.1102 56.5647 23.1942 56.5825 23.2806C56.6367 23.5621 56.6843 23.844 56.7295 24.127C56.7599 24.3172 56.7599 24.3172 56.7909 24.5112C56.9799 25.8337 57.0025 27.146 56.9998 28.4803C56.9997 28.6531 56.9997 28.6531 56.9996 28.8294C56.9951 30.6698 56.8965 32.436 56.5019 34.2398C56.4769 34.3564 56.4519 34.473 56.4261 34.5931C55.4584 38.996 53.4992 43.1671 50.5836 46.625C50.5348 46.6838 50.486 46.7426 50.4358 46.8032C49.2385 48.2449 47.9702 49.564 46.4863 50.7156C46.3186 50.8498 46.3186 50.8498 46.1476 50.9868C41.6262 54.5793 35.7163 56.9576 29.8932 56.9881C29.7907 56.9889 29.6882 56.9897 29.5826 56.9905C25.3186 57.0163 25.3186 57.0163 23.3823 56.6241C23.2667 56.6016 23.1511 56.579 23.0321 56.5557C17.3529 55.4216 12.3949 52.6602 8.24514 48.6703C8.15477 48.5848 8.06439 48.4992 7.97128 48.4111C7.36241 47.8225 6.83539 47.1745 6.31032 46.5114C6.21995 46.3991 6.12957 46.2867 6.03646 46.171C3.42834 42.8709 1.61878 39.0283 0.655237 34.9428C0.633569 34.8529 0.611902 34.763 0.589577 34.6704C0.13841 32.6614 -0.0126024 30.6477 0.000811782 28.594C0.00115793 28.4805 0.00150408 28.367 0.00186072 28.2501C0.0100629 26.4242 0.114371 24.6665 0.505857 22.8772C0.530853 22.7605 0.555849 22.6439 0.581603 22.5238C1.77812 17.0803 4.50623 12.327 8.35896 8.333C8.44464 8.24277 8.53032 8.15254 8.61859 8.05958C9.20813 7.45171 9.8572 6.92555 10.5214 6.40135C10.6339 6.31112 10.7465 6.2209 10.8624 6.12794C14.5428 3.22881 18.7918 1.38658 23.3823 0.492784C23.4764 0.473853 23.5706 0.454921 23.6676 0.435416C26.806 -0.166803 30.4954 -0.141206 33.6255 0.492784ZM13.4081 14.4582C11.535 16.711 10.9395 19.4234 10.9454 22.304C10.9448 22.4537 10.9442 22.6034 10.9436 22.7577C10.9421 23.1634 10.942 23.5691 10.9423 23.9748C10.9425 24.3161 10.9419 24.6574 10.9414 24.9987C10.9401 25.8055 10.94 26.6123 10.9407 27.4191C10.9414 28.2452 10.94 29.0714 10.9376 29.8975C10.9356 30.6123 10.9349 31.327 10.9353 32.0417C10.9355 32.4662 10.9352 32.8906 10.9336 33.3151C10.9212 36.9034 11.1751 40.3924 13.822 43.1026C16.0005 45.1388 18.7568 45.8441 21.6823 45.8498C21.8447 45.8505 22.007 45.8512 22.1694 45.852C22.701 45.8544 23.2326 45.8556 23.7642 45.8567C23.9483 45.8572 24.1324 45.8577 24.3165 45.8581C25.1827 45.8603 26.0489 45.8619 26.9151 45.8629C27.9091 45.864 28.9031 45.867 29.897 45.8716C30.6689 45.875 31.4407 45.8767 32.2126 45.877C32.6718 45.8773 33.131 45.8783 33.5902 45.8812C37.1982 45.9027 40.5474 45.5991 43.2996 42.989C45.3662 40.7149 46.0467 37.9025 46.0494 34.8885C46.05 34.7387 46.0505 34.589 46.0511 34.4346C46.0526 34.0256 46.0533 33.6166 46.0539 33.2075C46.0542 32.9509 46.0547 32.6943 46.0552 32.4378C46.0567 31.6319 46.0578 30.8261 46.0583 30.0203C46.0588 29.0958 46.0608 28.1713 46.0641 27.2468C46.0665 26.5286 46.0677 25.8105 46.0678 25.0923C46.0679 24.6651 46.0686 24.2379 46.0707 23.8107C46.0869 20.2238 45.8244 16.716 43.1857 14.0143C41.0072 11.9781 38.2509 11.2728 35.3255 11.2672C35.1631 11.2665 35.0007 11.2657 34.8383 11.2649C34.3067 11.2625 33.7751 11.2613 33.2436 11.2602C33.0594 11.2597 32.8753 11.2593 32.6912 11.2588C31.825 11.2566 30.9588 11.255 30.0926 11.2541C29.0986 11.253 28.1047 11.25 27.1107 11.2454C26.3388 11.2419 25.567 11.2403 24.7951 11.2399C24.3359 11.2396 23.8767 11.2386 23.4175 11.2358C19.7124 11.2136 16.0665 11.5328 13.4081 14.4582Z" fill="#322E2B"/>
<path d="M25.253 14.3403C25.5148 14.3403 25.7766 14.3402 26.0383 14.34C26.5831 14.3398 27.1279 14.3401 27.6728 14.3406C28.3645 14.3413 29.0562 14.3409 29.7479 14.3402C30.2874 14.3398 30.8268 14.3399 31.3662 14.3402C31.621 14.3403 31.8758 14.3402 32.1305 14.3399C33.3525 14.3389 34.572 14.3465 35.7927 14.4056C35.8832 14.41 35.9737 14.4143 36.067 14.4188C38.0215 14.5256 39.8863 15.0639 41.238 16.5494C43.1291 18.9539 42.9935 21.8789 42.9883 24.7806C42.9884 25.0841 42.9887 25.3875 42.9889 25.6909C42.9893 26.3238 42.9888 26.9568 42.9877 27.5898C42.9865 28.3161 42.9869 29.0424 42.9881 29.7687C42.9892 30.3982 42.9893 31.0278 42.9887 31.6573C42.9884 32.0307 42.9884 32.4041 42.9891 32.7775C42.9973 38.6345 42.9973 38.6345 40.9734 40.8588C39.537 42.2081 37.7095 42.6199 35.7927 42.7118C35.6946 42.7165 35.5965 42.7213 35.4954 42.7262C34.2488 42.7812 33.0021 42.7784 31.7546 42.7771C31.4928 42.7772 31.231 42.7773 30.9692 42.7774C30.4244 42.7776 29.8796 42.7773 29.3348 42.7768C28.6431 42.7762 27.9514 42.7765 27.2596 42.7772C26.7202 42.7776 26.1808 42.7775 25.6414 42.7772C25.3866 42.7771 25.1318 42.7772 24.877 42.7775C23.6546 42.7785 22.4343 42.771 21.2131 42.7131C21.077 42.7069 21.077 42.7069 20.9381 42.7005C19.2644 42.6105 17.6071 42.1811 16.3258 41.0576C16.2246 40.9724 16.2246 40.9724 16.1213 40.8854C14.5925 39.4942 14.1813 37.4637 14.0495 35.4899C14.0092 34.4395 14.0174 33.3878 14.0193 32.3368C14.0191 32.0334 14.0189 31.73 14.0186 31.4266C14.0182 30.7936 14.0188 30.1606 14.0199 29.5276C14.0211 28.8013 14.0207 28.075 14.0194 27.3487C14.0184 26.7192 14.0183 26.0897 14.0189 25.4601C14.0192 25.0867 14.0192 24.7134 14.0185 24.34C14.0103 18.4634 14.0103 18.4634 16.0484 16.2516C17.4585 14.9188 19.3282 14.4968 21.2095 14.4061C21.3573 14.3989 21.3573 14.3989 21.508 14.3916C22.756 14.3364 24.0041 14.339 25.253 14.3403ZM36.492 18.1548C36.0871 18.6284 35.9607 18.9303 35.9799 19.572C36.065 20.1404 36.3539 20.5018 36.7766 20.8747C37.2487 21.1059 37.6523 21.1966 38.1779 21.173C38.7163 20.987 39.0567 20.6897 39.4298 20.264C39.6416 19.6297 39.6504 19.0083 39.3587 18.4034C38.9528 17.9554 38.6011 17.7038 38.0143 17.5441C37.3719 17.5328 36.9724 17.7392 36.492 18.1548ZM22.6993 21.4003C22.6154 21.4631 22.5315 21.5259 22.445 21.5907C20.5707 23.0989 19.5798 25.4313 19.2849 27.7633C19.1243 30.0064 19.712 32.3009 21.1202 34.0838C21.2662 34.2503 21.4131 34.4162 21.5612 34.5809C21.6117 34.6486 21.6621 34.7162 21.7141 34.786C22.9819 36.4607 25.297 37.3865 27.2981 37.7118C29.9866 38.0444 32.4039 37.2153 34.5119 35.5853C36.3914 33.9848 37.4325 31.7756 37.7226 29.3541C37.8302 27.6709 37.5554 26.1 36.8121 24.5818C36.7645 24.4796 36.7168 24.3773 36.6677 24.272C35.5915 22.1232 33.7028 20.6196 31.4629 19.8095C28.3549 18.8163 25.249 19.4355 22.6993 21.4003Z" fill="#322E2B"/>
<path d="M32.3803 23.8433C33.5752 24.8408 34.326 26.2265 34.5357 27.7634C34.6544 29.6468 34.2107 31.2546 32.9908 32.7111C31.7792 33.9362 30.2691 34.5857 28.5463 34.6094C26.8251 34.5931 25.2942 33.9746 24.0649 32.763C22.8189 31.2535 22.3568 29.7167 22.4715 27.7634C22.7198 26.1513 23.4992 24.6905 24.8211 23.7071C27.1693 22.0544 30.0772 22.1604 32.3803 23.8433Z" fill="#322E2B"/>
</svg>
