<svg width="57" height="57" viewBox="0 0 57 57" fill="none" xmlns="http://www.w3.org/2000/svg">
<path d="M28.4583 0.000422072C28.5715 0.000661683 28.6847 0.000901295 28.8013 0.00114817C30.4257 0.00667059 32.0193 0.0345655 33.6148 0.368708C33.7232 0.390797 33.8316 0.412886 33.9432 0.435645C40.5664 1.82097 46.8324 5.36654 50.9605 10.8197C51.0067 10.8796 51.0529 10.9395 51.1004 11.0012C53.8247 14.5445 55.6585 18.6086 56.5548 22.987C56.5712 23.067 56.5876 23.1469 56.6045 23.2292C56.9351 24.9688 57.0063 26.6892 56.9996 28.4557C56.9993 28.5689 56.9991 28.6821 56.9989 28.7987C56.9933 30.4229 56.9654 32.0164 56.6313 33.6117C56.5981 33.7743 56.5981 33.7743 56.5643 33.9402C55.4244 39.3889 52.9405 44.2813 49.0703 48.2876C49.0037 48.3566 48.9371 48.4256 48.8685 48.4968C48.0163 49.3752 47.1556 50.2141 46.1793 50.9559C46.1193 51.0023 46.0592 51.0486 45.9973 51.0963C42.4537 53.82 38.3895 55.6535 34.0109 56.5497C33.931 56.5661 33.851 56.5825 33.7687 56.5994C32.1369 56.9095 30.5218 56.9985 28.8639 56.9948C28.537 56.9944 28.2103 56.9971 27.8835 56.9999C26.3965 57.0048 24.9626 56.8708 23.4964 56.6261C23.3068 56.5948 23.3068 56.5948 23.1133 56.5628C22.8247 56.5109 22.5388 56.4533 22.2525 56.3899C22.098 56.3558 22.098 56.3558 21.9405 56.3209C16.9264 55.1552 12.4021 52.6274 8.70805 49.0659C8.60087 48.9632 8.60087 48.9632 8.49153 48.8585C7.47123 47.8772 6.54281 46.8721 5.7059 45.7304C5.63506 45.6355 5.63506 45.6355 5.56278 45.5386C4.83831 44.5668 4.18971 43.5612 3.59327 42.5062C3.54855 42.4276 3.50383 42.3489 3.45776 42.2679C2.00945 39.6957 1.03666 36.8972 0.445185 34.0078C0.4288 33.9279 0.412416 33.848 0.395535 33.7656C0.0648693 32.0261 -0.00630533 30.3057 0.00042211 28.5391C0.000661743 28.4259 0.000901376 28.3128 0.00114827 28.1962C0.00667119 26.5719 0.0345686 24.9785 0.368741 23.3831C0.390833 23.2747 0.412924 23.1663 0.435684 23.0547C1.561 17.6755 3.99792 12.7849 7.81852 8.81844C7.88881 8.74514 7.9591 8.67183 8.03151 8.5963C9.04829 7.54139 10.0821 6.56968 11.2654 5.70538C11.3934 5.60998 11.5214 5.51458 11.6494 5.41918C12.56 4.74792 13.5054 4.14946 14.49 3.59295C14.5686 3.54823 14.6472 3.50352 14.7283 3.45745C17.3007 2.00927 20.0995 1.03657 22.9891 0.445145C23.069 0.428762 23.149 0.412379 23.2313 0.395499C24.9711 0.0648634 26.6916 -0.00630476 28.4583 0.000422072ZM29.2783 12.265C29.2767 12.9631 29.2751 13.6612 29.2734 14.3805C29.2678 16.6858 29.2604 18.9912 29.2521 21.2965C29.2471 22.6944 29.2427 24.0923 29.2398 25.4901C29.2373 26.7087 29.2335 27.9272 29.2284 29.1457C29.2258 29.7908 29.2237 30.4358 29.223 31.0809C29.2223 31.6885 29.2201 32.2961 29.2167 32.9036C29.2157 33.1262 29.2153 33.3488 29.2155 33.5713C29.217 36.0966 29.217 36.0966 28.4931 37.2112C28.2566 37.5773 28.2566 37.5773 28.0626 37.966C27.9114 38.2264 27.7721 38.2731 27.4993 38.3925C27.3454 38.5 27.1926 38.6089 27.0406 38.7191C25.9187 39.4603 24.6975 39.5261 23.3852 39.3931C22.1649 39.1366 21.0946 38.4121 20.3831 37.3919C19.6749 36.2066 19.4717 34.8725 19.7277 33.5201C20.11 32.1628 20.8267 31.1852 22.0509 30.4987C22.8487 30.1253 23.5499 29.9268 24.4346 29.9289C24.556 29.9286 24.6774 29.9283 24.8025 29.928C25.1548 29.9424 25.4846 29.993 25.8314 30.054C25.8342 29.3118 25.8362 28.5697 25.8375 27.8275C25.8381 27.5748 25.8389 27.3221 25.8398 27.0694C25.8412 26.7071 25.8418 26.3447 25.8423 25.9824C25.8429 25.8687 25.8434 25.7549 25.844 25.6378C25.844 25.4809 25.844 25.4809 25.844 25.3208C25.8443 25.2282 25.8445 25.1356 25.8448 25.0402C25.8548 24.8273 25.8548 24.8273 25.7202 24.7173C22.8957 24.4731 20.1444 25.096 17.9369 26.9409C15.8787 28.7316 14.5988 30.9856 14.2676 33.7229C14.1175 36.5595 14.9174 39.1602 16.7881 41.3366C18.6392 43.3364 21.0925 44.5647 23.83 44.7298C23.9459 44.7386 23.9459 44.7386 24.0641 44.7476C26.7404 44.8536 29.29 43.8077 31.2798 42.0615C31.363 41.9888 31.4463 41.9161 31.5321 41.8413C33.2165 40.2691 34.4309 37.874 34.5143 35.5569C34.518 35.2222 34.5181 34.8876 34.5169 34.5529C34.5169 34.3624 34.5169 34.3624 34.517 34.1681C34.5169 33.75 34.516 33.3319 34.5152 32.9138C34.515 32.6233 34.5148 32.3328 34.5147 32.0422C34.5143 31.3567 34.5134 30.6712 34.5123 29.9857C34.5111 29.2049 34.5105 28.4241 34.5099 27.6432C34.5087 26.0379 34.5068 24.4326 34.5043 22.8272C34.6151 22.9026 34.7259 22.9779 34.8401 23.0555C34.9889 23.1559 35.1377 23.2563 35.2865 23.3566C35.3592 23.4061 35.4318 23.4556 35.5066 23.5066C37.0451 24.5408 38.7848 25.1387 40.5989 25.4747C40.7085 25.4954 40.7085 25.4954 40.8202 25.5165C41.4776 25.6271 42.0411 25.6067 42.7324 25.6067C42.7324 23.8823 42.7324 22.1579 42.7324 20.3812C42.1086 20.3079 41.4849 20.2345 40.8422 20.1589C38.6712 19.5571 36.8509 18.3979 35.7057 16.4126C34.9805 15.0815 34.6719 13.7734 34.5043 12.265C32.7797 12.265 31.0552 12.265 29.2783 12.265Z" fill="#322E2B"/>
</svg>
